<svg xmlns="http://www.w3.org/2000/svg" version="1.1" xmlns:xlink="http://www.w3.org/1999/xlink" xmlns:svgjs="http://svgjs.dev/svgjs" width="700" height="120" viewBox="0 0 700 120"><rect width="700" height="120" fill="#000000"></rect><g transform="matrix(0.821917808219178,0,0,0.821917808219178,61.98007471980071,0.06506609918506001)"><svg viewBox="0 0 396 83" data-background-color="#000000" preserveAspectRatio="xMidYMid meet" height="146" width="700" xmlns="http://www.w3.org/2000/svg" xmlns:xlink="http://www.w3.org/1999/xlink"><g id="tight-bounds" transform="matrix(1,0,0,1,0.2400000000000091,-0.04500405193633128)"><svg viewBox="0 0 395.52 83.09000810387265" height="83.09000810387265" width="395.52"><g><svg viewBox="0 0 567.1415212914546 119.14389563144627" height="83.09000810387265" width="395.52"><g><rect width="7.7746161103792435" height="86.64226853082741" x="143.4945069863654" y="16.25081355030943" fill="#d6350e" opacity="1" stroke-width="0" stroke="transparent" fill-opacity="1" class="rect-qz-0" data-fill-palette-color="primary" rx="1%" id="qz-0" data-palette-color="#d6350e"></rect></g><g transform="matrix(1,0,0,1,171.6215212914547,16.46634158148064)"><svg viewBox="0 0 395.52 86.21121246848499" height="86.21121246848499" width="395.52"><g id="textblocktransform"><svg viewBox="0 0 395.52 86.21121246848499" height="86.21121246848499" width="395.52" id="textblock"><g><svg viewBox="0 0 395.52 86.21121246848499" height="86.21121246848499" width="395.52"><g transform="matrix(1,0,0,1,0,0)"><svg width="395.52" viewBox="1.45 -35.55 218.13000000000002 47.55" height="86.21121246848499" data-palette-color="#d6350e"><g class="wordmark-text-0" data-fill-palette-color="primary" id="text-0"><path d="M9.65 0.75L9.65 0.75Q7.2 0.75 5.25 0.18 3.3-0.4 1.65-1.25L1.65-1.25 1.7-7.2 2.2-7.2 3.9-4.2Q5-2.2 6.33-1.23 7.65-0.25 9.7-0.25L9.7-0.25Q12.1-0.25 13.58-1.33 15.05-2.4 15.05-4.2L15.05-4.2Q15.05-5.85 14-6.9 12.95-7.95 10.1-8.8L10.1-8.8 8-9.45Q4.95-10.35 3.2-12.25 1.45-14.15 1.45-16.9L1.45-16.9Q1.45-20.2 4.05-22.5 6.65-24.8 11.5-24.8L11.5-24.8Q13.45-24.8 15.18-24.38 16.9-23.95 18.5-23.1L18.5-23.1 18.2-17.7 17.7-17.7 15.95-20.8Q15-22.45 14.08-23.13 13.15-23.8 11.3-23.8L11.3-23.8Q9.6-23.8 8.1-22.85 6.6-21.9 6.6-20.15L6.6-20.15Q6.6-18.45 7.88-17.45 9.15-16.45 11.65-15.6L11.65-15.6 13.9-14.95Q17.5-13.85 19.05-11.93 20.6-10 20.6-7.3L20.6-7.3Q20.6-3.65 17.73-1.45 14.85 0.75 9.65 0.75ZM34.95 11.5L22.8 11.5 22.8 11 23.4 10.8Q25.25 10.3 25.25 8.4L25.25 8.4 25.25-18.8Q25.25-19.9 24.87-20.45 24.5-21 23.5-21.2L23.5-21.2 22.8-21.35 22.8-21.85 31.3-24.75 31.8-24.25 32.25-22.7Q33.9-23.7 35.92-24.25 37.95-24.8 40.1-24.8L40.1-24.8Q44.4-24.8 46.92-21.53 49.45-18.25 49.45-12.15L49.45-12.15Q49.45-6.15 46.67-2.7 43.9 0.75 38.85 0.75L38.85 0.75Q34.9 0.75 32.2-0.4L32.2-0.4 32.2 8.25Q32.2 10.25 34 10.75L34 10.75 34.95 11 34.95 11.5ZM36.45-0.7L36.45-0.7Q38.95-0.7 40.42-3.3 41.9-5.9 41.9-11.95L41.9-11.95Q41.9-18 40.5-20.43 39.1-22.85 36.45-22.85L36.45-22.85Q34.6-22.85 32.35-21.65L32.35-21.65 32.35-1.5Q34.25-0.7 36.45-0.7ZM64.35 0.75L64.35 0.75Q60.55 0.75 57.75-0.83 54.95-2.4 53.42-5.3 51.9-8.2 51.9-12.1L51.9-12.1Q51.9-16 53.52-18.85 55.15-21.7 57.97-23.25 60.8-24.8 64.35-24.8L64.35-24.8Q67.9-24.8 70.7-23.28 73.5-21.75 75.12-18.9 76.75-16.05 76.75-12.1L76.75-12.1Q76.75-8.15 75.22-5.28 73.7-2.4 70.92-0.83 68.15 0.75 64.35 0.75ZM64.35-0.25L64.35-0.25Q66.1-0.25 67.15-1.25 68.2-2.25 68.67-4.8 69.15-7.35 69.15-12L69.15-12Q69.15-16.7 68.67-19.25 68.2-21.8 67.15-22.8 66.1-23.8 64.35-23.8L64.35-23.8Q62.6-23.8 61.52-22.8 60.45-21.8 59.97-19.25 59.5-16.7 59.5-12L59.5-12Q59.5-7.35 59.97-4.8 60.45-2.25 61.52-1.25 62.6-0.25 64.35-0.25ZM88.44 0.75L88.44 0.75Q85.24 0.75 83.47-0.85 81.69-2.45 81.69-5.95L81.69-5.95 81.69-23.05 78.24-23.05 78.24-23.55 79.44-23.75Q80.99-24.1 82.12-24.75 83.24-25.4 84.34-26.5L84.34-26.5 88.44-31.05 88.94-31.05 88.79-24.05 94.39-24.05 94.39-23.05 88.74-23.05 88.74-5.05Q88.74-3.3 89.52-2.4 90.29-1.5 91.49-1.5L91.49-1.5Q92.54-1.5 93.34-2.02 94.14-2.55 94.94-3.45L94.94-3.45 95.44-2.95Q94.44-1.25 92.69-0.25 90.94 0.75 88.44 0.75ZM102.99-27.4L102.99-27.4Q101.29-27.4 100.12-28.48 98.94-29.55 98.94-31.2L98.94-31.2Q98.94-32.9 100.12-33.95 101.29-35 102.99-35L102.99-35Q104.69-35 105.84-33.95 106.99-32.9 106.99-31.2L106.99-31.2Q106.99-29.55 105.84-28.48 104.69-27.4 102.99-27.4ZM108.79 0L97.09 0 97.09-0.5 97.79-0.7Q98.79-1 99.17-1.6 99.54-2.2 99.54-3.2L99.54-3.2 99.54-18.85Q99.54-19.9 99.17-20.43 98.79-20.95 97.79-21.15L97.79-21.15 97.09-21.3 97.09-21.8 106.24-24.75 106.74-24.25 106.59-17.15 106.59-3.15Q106.59-2.15 106.97-1.55 107.34-0.95 108.29-0.65L108.29-0.65 108.79-0.5 108.79 0ZM124.19 0L111.09 0 111.09-0.5 111.74-0.65Q112.69-0.9 113.24-1.53 113.79-2.15 113.79-3.15L113.79-3.15Q113.79-5 113.81-6.83 113.84-8.65 113.84-10.5L113.84-10.5 113.84-23.05 111.04-23.05 111.04-23.6 112.14-23.8Q113.14-23.9 113.59-24.5 114.04-25.1 114.24-26.15L114.24-26.15Q114.74-28.1 115.71-29.58 116.69-31.05 117.94-32.3L117.94-32.3Q119.84-34.1 121.96-34.83 124.09-35.55 126.14-35.55L126.14-35.55Q128.14-35.55 129.79-34.73 131.44-33.9 131.44-32L131.44-32Q131.44-30.65 130.64-29.88 129.84-29.1 128.39-29.1L128.39-29.1Q127.19-29.1 126.19-29.75 125.19-30.4 124.24-32.05L124.24-32.05 123.54-32.9Q122.99-33.6 122.44-33.58 121.89-33.55 121.64-32.75L121.64-32.75Q121.29-31 121.11-28.65 120.94-26.3 120.94-24.05L120.94-24.05 126.54-24.05 126.54-23.05 120.94-23.05 120.94-3.25Q120.94-1.35 122.94-0.8L122.94-0.8 124.19-0.5 124.19 0ZM132.74 12L132.74 12Q130.74 12 129.56 11 128.39 10 128.39 8.45L128.39 8.45Q128.39 7.05 129.39 6.2 130.39 5.35 131.64 5.35L131.64 5.35Q132.89 5.35 133.74 5.88 134.59 6.4 135.24 7.4L135.24 7.4 135.59 7.8Q136.69 9.3 137.79 7.75L137.79 7.75Q138.24 7 138.81 5.78 139.39 4.55 140.14 2.5L140.14 2.5 130.44-20.7Q130.09-21.65 129.69-22.23 129.29-22.8 128.39-23.2L128.39-23.2 127.49-23.55 127.49-24.05 139.94-24.05 139.94-23.6 138.94-23.2Q137.84-22.85 137.81-22.08 137.79-21.3 138.19-20.15L138.19-20.15 143.39-6.65 148.34-20.3Q148.74-21.45 148.64-22.23 148.54-23 147.39-23.3L147.39-23.3 146.34-23.55 146.34-24.05 153.29-24.05 153.29-23.55 152.19-23.2Q151.04-22.85 150.59-22.2 150.14-21.55 149.74-20.4L149.74-20.4 141.69 1.55Q139.74 6.8 137.79 9.4 135.84 12 132.74 12ZM157.88-23.3L157.38-23.3 157.73-30.4Q159.23-31.25 161.46-31.85 163.68-32.45 166.48-32.45L166.48-32.45Q170.48-32.45 172.93-31.33 175.38-30.2 176.53-28.25 177.68-26.3 177.68-23.85L177.68-23.85Q177.68-20.4 174.33-17.13 170.98-13.85 165.18-9.9L165.18-9.9Q164.08-9.1 162.58-7.95 161.08-6.8 159.78-5.7L159.78-5.7 178.53-5.7 178.53 0 156.53 0 156.53-4.2Q158.33-5.95 160.06-7.68 161.78-9.4 163.33-10.95L163.33-10.95Q166.93-14.65 168.71-17.53 170.48-20.4 170.48-23.7L170.48-23.7Q170.48-27.15 169.23-29.28 167.98-31.4 165.48-31.4L165.48-31.4Q163.93-31.4 162.61-30.63 161.28-29.85 160.28-27.95L160.28-27.95 157.88-23.3ZM188.03 0.75L188.03 0.75Q186.23 0.75 184.98-0.5 183.73-1.75 183.73-3.5L183.73-3.5Q183.73-5.25 184.98-6.55 186.23-7.85 188.03-7.85L188.03-7.85Q189.83-7.85 191.08-6.55 192.33-5.25 192.33-3.5L192.33-3.5Q192.33-1.75 191.08-0.5 189.83 0.75 188.03 0.75ZM208.08 0.75L208.08 0.75Q205.08 0.75 202.45-0.95 199.83-2.65 198.23-6.3 196.63-9.95 196.63-15.8L196.63-15.8Q196.63-21.7 198.23-25.38 199.83-29.05 202.45-30.75 205.08-32.45 208.08-32.45L208.08-32.45Q211.08-32.45 213.7-30.75 216.33-29.05 217.95-25.38 219.58-21.7 219.58-15.8L219.58-15.8Q219.58-9.95 217.95-6.3 216.33-2.65 213.7-0.95 211.08 0.75 208.08 0.75ZM208.08-0.25L208.08-0.25Q209.33-0.25 210.2-0.9 211.08-1.55 211.63-3.25 212.18-4.95 212.43-7.98 212.68-11 212.68-15.8L212.68-15.8Q212.68-20.6 212.43-23.68 212.18-26.75 211.63-28.45 211.08-30.15 210.2-30.8 209.33-31.45 208.08-31.45L208.08-31.45Q206.83-31.45 205.95-30.8 205.08-30.15 204.53-28.48 203.98-26.8 203.73-23.73 203.48-20.65 203.48-15.8L203.48-15.8Q203.48-11 203.73-7.95 203.98-4.9 204.53-3.23 205.08-1.55 205.95-0.9 206.83-0.25 208.08-0.25Z" fill="#d6350e" data-fill-palette-color="primary"></path></g></svg></g></svg></g></svg></g></svg></g><g><svg viewBox="0 0 123.14210879165533 119.14389563144627" height="119.14389563144627" width="123.14210879165533"><g><svg xmlns="http://www.w3.org/2000/svg" xmlns:xlink="http://www.w3.org/1999/xlink" version="1.1" x="0" y="0" viewBox="6.10837660115926 6.86325504427348 88.13822088038815 85.27652395072454" enable-background="new 0 0 100 100" xml:space="preserve" height="119.14389563144627" width="123.14210879165533" class="icon-icon-0" data-fill-palette-color="accent" id="icon-0"><g fill="#d6350e" data-fill-palette-color="accent"><path d="M90.012 8.518L89.799 8.16c0.754-0.475 0.68-0.716 0.68-0.716s-0.371-1.008-1.446-0.368c-1.07 0.645-0.359 1.449-0.359 1.449s0.179 0.177 0.943-0.256l0.198 0.336c-0.08 0.042-0.977 0.521-2.272 1.21l-0.194-0.33c0.752-0.474 0.68-0.716 0.68-0.716s-0.373-1.007-1.449-0.368c-1.07 0.646-0.357 1.449-0.357 1.449s0.176 0.179 0.941-0.255l0.193 0.321c-0.656 0.35-1.4 0.745-2.185 1.163l-0.223-0.371c0.754-0.475 0.682-0.717 0.682-0.717s-0.373-1.007-1.448-0.368c-1.07 0.645-0.359 1.449-0.359 1.449S84 11.25 84.766 10.817l0.217 0.364c-0.719 0.382-1.465 0.78-2.203 1.174l-0.191-0.321c0.752-0.476 0.68-0.717 0.68-0.717s-0.373-1.008-1.447-0.369c-1.071 0.646-0.36 1.449-0.36 1.449s0.181 0.179 0.942-0.255l0.188 0.313c-0.772 0.412-1.526 0.814-2.229 1.188l-0.184-0.309c0.756-0.474 0.682-0.717 0.682-0.717s-0.373-1.007-1.446-0.367c-1.07 0.645-0.36 1.449-0.36 1.449s0.178 0.177 0.944-0.256l0.178 0.3c-0.889 0.473-1.668 0.891-2.25 1.203l-0.163-0.276c0.752-0.474 0.68-0.716 0.68-0.716s-0.371-1.008-1.447-0.368c-1.072 0.646-0.361 1.449-0.361 1.449s0.178 0.179 0.945-0.256l0.158 0.27c-0.328 0.176-0.58 0.313-0.728 0.393-1.452 0.796-1.834 1.106-1.557 1.833 0.276 0.726 0.006 1.458 0.004 1.459-0.019 0.017-0.039 0.038-0.067 0.065-0.412 0.398-1.847 1.791-2.601 2.522-1.916 1.858-3.83 3.713-5.744 5.57-2.426 2.354-4.854 4.708-7.28 7.063-2.482 2.406-4.964 4.812-7.443 7.219-2.711 2.632-5.445 5.242-8.146 7.884-0.792 0.777-1.509 1.578-2.731 1.3-1.091-0.248-1.995-1.252-2.408-2.262-0.864-2.111-0.087-4.4 1.277-6.1 0.654-0.814 2.151-2.124 1.152-3.208-1.601-1.735-4.646 0.403-5.986 1.482-3.238 2.61-4.645 6.029-6.514 9.59-0.941 1.793-2.085 3.495-3.719 4.729-1.622 1.227-3.445 1.68-5.325 2.33-1.157 0.4-2.299 0.843-3.415 1.35-4.167 1.893-8.674 4.944-10.038 9.568-0.666 2.254-0.365 4.602 0.518 6.752 0.452 1.102 1.004 2.158 1.633 3.169 2.504 4.021 6.03 7.591 9.594 10.687 1.744 1.516 3.716 2.902 5.998 3.433 2.748 0.64 5.819 0.075 8.257-1.304 4.857-2.748 7.449-11.631 7.449-11.631 0.331-1.062 0.659-2.125 1.084-3.151 0.761-1.835 1.89-3.381 3.572-4.47 0.83-0.536 1.724-0.965 2.616-1.385 1.091-0.513 2.185-0.951 3.218-1.578 1.552-0.942 2.993-2.17 3.803-3.828 0.233-0.481 0.535-1.123 0.554-1.68 0.024-0.802-0.316-1.828-1.226-1.978-0.925-0.151-1.677 0.542-2.418 0.978-0.938 0.551-1.959 1.016-3.05 1.148-0.927 0.113-1.769-0.264-2.491-0.821-0.949-0.733-2.045-2.18-2.075-3.456-0.002-0.117-0.037-0.197 0.058-0.296 0.031-0.032 31.75-32.822 34.772-35.844 3.025-3.025 5.549-1.503 5.549-1.503 1.695-1.659 3.891-5.41 4.787-6.793 0.9-1.382 2.18 0.242 3.732-0.587 1.557-0.83 2.594-3.111 1.16-4.685C92.367 7.702 90.578 8.284 90.012 8.518zM39.562 52.711c0.634 2.104 1.523 4.114 2.426 6.113 0.977 2.164 1.793 4.693 4.342 5.422 0.582 0.165 1.287 0.279 1.893 0.234 1.5-0.107 2.794-0.832 4.039-1.621 0.273-0.174 0.856-0.709 1.129-0.312 0.272 0.395-0.068 1.227-0.246 1.584-0.412 0.834-1.125 1.508-1.836 2.09-2.394 1.959-5.368 2.723-7.919 4.389-1.292 0.844-2.149 2.062-2.807 3.438-1.059 2.212-1.905 4.525-2.801 6.807-0.133 0.34-0.267 0.681-0.402 1.021-0.433 1.096-0.893 2.146-1.466 3.178-0.479 0.862-1.409 2.461-2.663 2.19-0.46-0.101-0.777-0.562-0.967-0.962-0.458-0.963-0.432-2.133-0.441-3.174-0.011-1.269-0.348-2.601-0.88-3.748-0.471-1.016-1.133-1.898-1.878-2.717-0.734-0.809-1.549-1.554-2.335-2.301-1.191-1.132-2.299-2.355-3.537-3.438-0.816-0.719-1.987-1.611-2.306-2.711-0.793-2.731 1.656-5.295 3.748-6.607 0.668-0.42 1.386-0.771 2.111-1.086 2.567-1.109 5.087-2.314 7.129-4.273 1.232-1.184 2.043-2.559 2.991-3.955 0.268-0.393 0.568-0.847 1.031-1.022C38.951 50.85 39.327 51.936 39.562 52.711z" fill="#d6350e" data-fill-palette-color="accent"></path><g fill="#d6350e" data-fill-palette-color="accent"><circle cx="33.902" cy="84.067" r="1.4" fill="#d6350e" data-fill-palette-color="accent"></circle><circle cx="33.463" cy="79.112" r="1.4" fill="#d6350e" data-fill-palette-color="accent"></circle><circle cx="32.081" cy="74.273" r="1.4" fill="#d6350e" data-fill-palette-color="accent"></circle></g><path d="M35.811 65.986c0.406 0.404 0.406 1.062 0 1.469l0 0c-0.406 0.404-1.064 0.404-1.47 0l-4.077-4.078c-0.406-0.406-0.406-1.064 0-1.47l0 0c0.405-0.406 1.063-0.406 1.469 0L35.811 65.986z" fill="#d6350e" data-fill-palette-color="accent"></path><path d="M31.011 70.988c0.324 0.474 0.203 1.121-0.271 1.443l0 0c-0.473 0.323-1.121 0.201-1.444-0.271L26.04 67.4c-0.324-0.475-0.203-1.121 0.271-1.443l0 0c0.474-0.325 1.121-0.203 1.445 0.271L31.011 70.988z" fill="#d6350e" data-fill-palette-color="accent"></path><path d="M40.615 61.182c0.406 0.404 0.406 1.062 0 1.469l0 0c-0.405 0.404-1.063 0.406-1.469 0l-4.078-4.077c-0.406-0.406-0.406-1.064 0-1.47l0 0c0.406-0.406 1.063-0.406 1.469 0L40.615 61.182z" fill="#d6350e" data-fill-palette-color="accent"></path></g></svg></g></svg></g></svg></g><defs></defs></svg><rect width="395.52" height="83.09000810387265" fill="none" stroke="none" visibility="hidden"></rect></g></svg></g></svg>